PathFileType	4	(X/Y/Z)
DataRate	CameraRate	NumFrames	NumMarkers	Units	OrigDataRate	OrigDataStartFrame	OrigNumFrames	
	120.0	120.0	6	39	mm	120.0	174	231
Frame#	Time	midhip	hip_r	hip_l	knee_r	knee_l	ankle_r	ankle_l	midasis	asis_r	asis_l	psis_r	psis_l	epicondLat_r	epicondLat_l	epicondMed_r	epicondMed_l	malleolusLat_r	malleolusLat_l	malleolusMedv_r	malleolusMedv_l	heel_r	heel_l	sternalnotch	xyphoidprocess	neck	subclavicle_r	subclavicle_l	toe_r	toe_l	thighwand_r	thighwand_l	upperleg1_r	upperleg1_l	upperleg2_r	upperleg2_l	shankwand_r	shankwand_l	lowerleg1_r	lowerleg1_l
	X1	Y1	Z1	X2	Y2	Z2	X3	Y3	Z3	X4	Y4	Z4	X5	Y5	Z5	X6	Y6	Z6	X7	Y7	Z7	X8	Y8	Z8	X9	Y9	Z9	X10	Y10	Z10	X11	Y11	Z11	X12	Y12	Z12	X13	Y13	Z13	X14	Y14	Z14	X15	Y15	Z15	X16	Y16	Z16	X17	Y17	Z17	X18	Y18	Z18	X19	Y19	Z19	X20	Y20	Z20	X21	Y21	Z21	X22	Y22	Z22	X23	Y23	Z23	X24	Y24	Z24	X25	Y25	Z25	X26	Y26	Z26	X27	Y27	Z27	X28	Y28	Z28	X29	Y29	Z29	X30	Y30	Z30	X31	Y31	Z31	X32	Y32	Z32	X33	Y33	Z33	X34	Y34	Z34	X35	Y35	Z35	X36	Y36	Z36	X37	Y37	Z37	X38	Y38	Z38	X39	Y39	Z39

	174	1.45000	1361.144	701.580	-226.498	1358.845	703.956	-163.670	1363.444	699.204	-289.325	1340.132	374.328	-139.062	1341.631	377.919	-307.815	1355.457	57.402	-109.520	1336.448	59.236	-343.577	1436.456	753.319	-225.698	1433.044	756.845	-132.473	1439.868	749.793	-318.923	1297.835	816.596	-214.198	1299.326	809.489	-268.553	1338.109	378.199	-88.751	1341.547	380.797	-357.732	1337.302	375.959	-189.401	1342.801	366.137	-254.957	1345.429	59.888	-77.653	1330.491	63.121	-377.336	1351.945	65.198	-137.233	1332.810	60.219	-313.787	1299.877	39.006	-112.477	1283.304	40.888	-338.533	1400.116	1114.942	-244.278	1452.296	980.477	-239.452	1324.716	1150.024	-244.964	1399.119	1127.848	-184.106	1405.272	1126.670	-299.322	1451.461	39.964	-99.232	1432.164	38.594	-357.433	1341.656	485.012	-20.564	1477.986	475.572	-333.810	1381.738	538.199	-91.051	1413.549	529.752	-273.335	1386.259	453.489	-98.586	1396.864	443.648	-274.503	1317.068	168.028	-15.039	1420.904	163.148	-371.630	1329.695	219.253	-78.805	1360.583	216.250	-343.782
	175	1.45833	1361.155	701.578	-226.462	1358.853	703.959	-163.635	1363.456	699.198	-289.289	1340.139	374.321	-139.029	1341.642	377.914	-307.786	1355.496	57.409	-109.504	1336.439	59.259	-343.587	1436.459	753.328	-225.664	1433.044	756.861	-132.433	1439.875	749.796	-318.895	1297.839	816.583	-214.159	1299.321	809.475	-268.528	1338.117	378.191	-88.718	1341.552	380.794	-357.703	1337.332	375.933	-189.361	1342.844	366.110	-254.925	1345.469	59.892	-77.636	1330.478	63.149	-377.345	1351.907	65.182	-137.242	1332.812	60.208	-313.792	1299.869	39.008	-112.484	1283.303	40.882	-338.533	1400.113	1114.944	-244.323	1452.366	980.508	-239.487	1324.851	1149.938	-245.051	1399.073	1127.841	-184.121	1405.295	1126.683	-299.390	1451.442	39.971	-99.207	1432.157	38.597	-357.425	1341.653	485.012	-20.524	1477.964	475.581	-333.807	1381.737	538.163	-91.019	1413.538	529.749	-273.291	1386.269	453.501	-98.544	1396.877	443.642	-274.474	1317.062	168.023	-15.023	1420.901	163.154	-371.619	1329.715	219.232	-78.802	1360.620	216.280	-343.789
	176	1.46667	1361.166	701.589	-226.426	1358.862	703.972	-163.599	1363.471	699.205	-289.253	1340.134	374.311	-138.991	1341.647	377.917	-307.763	1355.493	57.424	-109.492	1336.420	59.277	-343.589	1436.462	753.352	-225.628	1433.042	756.889	-132.390	1439.881	749.815	-318.866	1297.928	816.556	-214.093	1299.315	809.456	-268.502	1338.117	378.181	-88.680	1341.550	380.800	-357.679	1337.356	375.948	-189.305	1342.862	366.126	-254.848	1345.469	59.905	-77.623	1330.454	63.170	-377.346	1351.867	65.186	-137.224	1332.796	60.203	-313.784	1299.860	39.005	-112.488	1283.305	40.870	-338.535	1400.161	1115.016	-244.322	1452.619	980.661	-239.466	1324.853	1149.894	-245.093	1399.132	1127.933	-184.102	1405.297	1126.743	-299.418	1451.414	39.990	-99.177	1432.144	38.607	-357.418	1341.642	485.015	-20.484	1477.936	475.602	-333.811	1381.697	538.150	-90.945	1413.536	529.764	-273.217	1386.257	453.557	-98.473	1396.881	443.675	-274.413	1317.047	168.023	-15.002	1420.894	163.169	-371.610	1329.688	219.227	-78.764	1360.660	216.377	-343.817
	177	1.47500	1361.164	701.630	-226.393	1358.858	704.015	-163.566	1363.471	699.244	-289.220	1340.120	374.312	-138.951	1341.647	377.930	-307.744	1355.458	57.467	-109.491	1336.395	59.288	-343.579	1436.463	753.388	-225.593	1433.039	756.928	-132.350	1439.886	749.848	-318.837	1298.314	816.502	-213.938	1299.312	809.440	-268.474	1338.109	378.183	-88.639	1341.544	380.815	-357.661	1337.232	375.974	-189.178	1342.901	366.153	-254.746	1345.438	59.946	-77.621	1330.426	63.182	-377.335	1351.840	65.206	-137.187	1332.703	60.218	-313.759	1299.853	39.001	-112.492	1283.310	40.860	-338.537	1400.280	1115.127	-244.300	1453.032	980.887	-239.426	1324.868	1149.852	-245.143	1399.302	1128.081	-184.072	1405.320	1126.828	-299.426	1451.382	40.018	-99.148	1432.129	38.627	-357.410	1341.629	485.025	-20.445	1477.915	475.627	-333.810	1381.584	538.187	-90.884	1413.547	529.805	-273.127	1386.165	453.641	-98.394	1396.896	443.708	-274.334	1317.029	168.032	-14.977	1420.883	163.189	-371.603	1329.579	219.241	-78.700	1360.642	216.433	-343.797
	178	1.48333	1361.169	701.664	-226.363	1358.860	704.050	-163.536	1363.478	699.278	-289.189	1340.103	374.325	-138.910	1341.644	377.950	-307.725	1355.443	57.561	-109.503	1336.372	59.295	-343.560	1436.464	753.428	-225.562	1433.037	756.969	-132.316	1439.890	749.887	-318.808	1298.524	816.479	-213.839	1299.311	809.431	-268.444	1338.098	378.197	-88.599	1341.536	380.837	-357.642	1337.083	376.012	-189.072	1342.946	366.179	-254.681	1345.426	60.034	-77.632	1330.399	63.190	-377.315	1351.795	65.247	-137.183	1332.609	60.254	-313.735	1299.852	39.000	-112.494	1283.317	40.855	-338.536	1400.400	1115.236	-244.319	1453.411	981.099	-239.425	1324.882	1149.829	-245.191	1399.466	1128.224	-184.089	1405.354	1126.913	-299.466	1451.351	40.048	-99.121	1432.114	38.651	-357.401	1341.620	485.043	-20.407	1477.903	475.650	-333.802	1381.528	538.224	-90.867	1413.545	529.872	-273.082	1386.086	453.734	-98.344	1396.909	443.728	-274.287	1317.012	168.049	-14.951	1420.870	163.210	-371.598	1329.480	219.286	-78.664	1360.606	216.499	-343.788
	179	1.49167	1361.154	701.719	-226.341	1358.844	704.105	-163.515	1363.464	699.333	-289.168	1340.090	374.340	-138.872	1341.637	377.971	-307.707	1355.452	57.677	-109.526	1336.355	59.293	-343.534	1436.465	753.460	-225.537	1433.036	757.001	-132.291	1439.893	749.918	-318.783	1299.033	816.428	-213.649	1299.312	809.429	-268.411	1338.089	378.213	-88.561	1341.528	380.858	-357.624	1336.960	376.093	-189.027	1342.957	366.227	-254.687	1345.438	60.145	-77.653	1330.382	63.187	-377.289	1351.761	65.309	-137.187	1332.577	60.301	-313.720	1299.855	39.002	-112.493	1283.326	40.852	-338.531	1400.386	1115.303	-244.382	1453.481	981.203	-239.400	1324.888	1149.836	-245.223	1399.407	1128.316	-184.147	1405.367	1126.961	-299.541	1451.330	40.073	-99.103	1432.103	38.668	-357.395	1341.620	485.064	-20.373	1477.900	475.666	-333.788	1381.523	538.265	-90.851	1413.554	529.949	-273.086	1386.035	453.820	-98.321	1396.913	443.753	-274.289	1317.001	168.067	-14.928	1420.861	163.225	-371.594	1329.459	219.367	-78.646	1360.588	216.570	-343.801
